<svg width="102" height="25" viewBox="0 0 102 25" fill="none" xmlns="http://www.w3.org/2000/svg">
<path d="M2.19727 7.04454C2.19727 7.90001 2.50195 8.62657 3.11133 9.22423C3.70898 9.8336 4.43555 10.1383 5.29102 10.1383H8.80664C9.89648 10.1383 10.8281 10.525 11.6016 11.2984C12.375 12.0719 12.7617 13.0035 12.7617 14.0934V19.3844C12.7617 20.4742 12.375 21.4059 11.6016 22.1793C10.8281 22.9527 9.89648 23.3395 8.80664 23.3395H0V24.6578H8.80664C10.2598 24.6578 11.502 24.1422 12.5332 23.1109C13.5645 22.0797 14.0801 20.8375 14.0801 19.3844V14.0934C14.0801 12.6402 13.5645 11.3981 12.5332 10.3668C11.502 9.33556 10.2598 8.81993 8.80664 8.81993H5.29102C4.79883 8.81993 4.38281 8.64415 4.04297 8.29259C3.69141 7.95274 3.51562 7.53673 3.51562 7.04454V5.28673C3.51562 4.80626 3.69141 4.39024 4.04297 4.03868C4.38281 3.69884 4.79883 3.52892 5.29102 3.52892H14.0801V2.21056H5.29102C4.43555 2.21056 3.70898 2.50938 3.11133 3.10704C2.50195 3.71642 2.19727 4.44298 2.19727 5.28673V7.04454ZM5.29102 0.0132908C3.82617 0.0132908 2.57812 0.528916 1.54688 1.56017C0.515625 2.59142 0 3.8336 0 5.28673V7.04454C0 8.50938 0.515625 9.75743 1.54688 10.7887C2.57812 11.8199 3.82617 12.3356 5.29102 12.3356H8.80664C9.28711 12.3356 9.70312 12.5055 10.0547 12.8453C10.3945 13.1969 10.5645 13.6129 10.5645 14.0934V19.3668C10.5645 19.859 10.3945 20.275 10.0547 20.6149C9.70312 20.9664 9.28711 21.1422 8.80664 21.1422H0V22.4606H8.80664C9.65039 22.4606 10.377 22.1559 10.9863 21.5465C11.584 20.9488 11.8828 20.2223 11.8828 19.3668V14.0934C11.8828 13.2496 11.584 12.5231 10.9863 11.9137C10.377 11.316 9.65039 11.0172 8.80664 11.0172H5.29102C4.18945 11.0172 3.25195 10.6305 2.47852 9.85704C1.70508 9.0836 1.31836 8.1461 1.31836 7.04454V5.28673C1.31836 4.19688 1.70508 3.26524 2.47852 2.49181C3.25195 1.71837 4.18945 1.33165 5.29102 1.33165H14.0801V0.0132908H5.29102Z" transform="translate(0.210938 0.342163)" fill="white"/>
<path d="M17.8066 7.04454C17.8066 7.90001 18.1113 8.62657 18.7207 9.22423C19.3184 9.8336 20.0449 10.1383 20.9004 10.1383H24.416C25.5059 10.1383 26.4375 10.525 27.2109 11.2984C27.9844 12.0719 28.3711 13.0035 28.3711 14.0934V19.3844C28.3711 20.4742 27.9844 21.4059 27.2109 22.1793C26.4375 22.9527 25.5059 23.3395 24.416 23.3395H15.6094V24.6578H24.416C25.8691 24.6578 27.1113 24.1422 28.1426 23.1109C29.1738 22.0797 29.6895 20.8375 29.6895 19.3844V14.0934C29.6895 12.6402 29.1738 11.3981 28.1426 10.3668C27.1113 9.33556 25.8691 8.81993 24.416 8.81993H20.9004C20.4082 8.81993 19.9922 8.64415 19.6523 8.29259C19.3008 7.95274 19.125 7.53673 19.125 7.04454V5.28673C19.125 4.80626 19.3008 4.39024 19.6523 4.03868C19.9922 3.69884 20.4082 3.52892 20.9004 3.52892H29.6895V2.21056H20.9004C20.0449 2.21056 19.3184 2.50938 18.7207 3.10704C18.1113 3.71642 17.8066 4.44298 17.8066 5.28673V7.04454ZM20.9004 0.0132908C19.4355 0.0132908 18.1875 0.528916 17.1562 1.56017C16.125 2.59142 15.6094 3.8336 15.6094 5.28673V7.04454C15.6094 8.50938 16.125 9.75743 17.1562 10.7887C18.1875 11.8199 19.4355 12.3356 20.9004 12.3356H24.416C24.8965 12.3356 25.3125 12.5055 25.6641 12.8453C26.0039 13.1969 26.1738 13.6129 26.1738 14.0934V19.3668C26.1738 19.859 26.0039 20.275 25.6641 20.6149C25.3125 20.9664 24.8965 21.1422 24.416 21.1422H15.6094V22.4606H24.416C25.2598 22.4606 25.9863 22.1559 26.5957 21.5465C27.1934 20.9488 27.4922 20.2223 27.4922 19.3668V14.0934C27.4922 13.2496 27.1934 12.5231 26.5957 11.9137C25.9863 11.316 25.2598 11.0172 24.416 11.0172H20.9004C19.7988 11.0172 18.8613 10.6305 18.0879 9.85704C17.3145 9.0836 16.9277 8.1461 16.9277 7.04454V5.28673C16.9277 4.19688 17.3145 3.26524 18.0879 2.49181C18.8613 1.71837 19.7988 1.33165 20.9004 1.33165H29.6895V0.0132908H20.9004Z" transform="translate(0.210938 0.342163)" fill="white"/>
<path d="M38.707 2.28087C38.0977 2.08165 37.6055 2.24571 37.2305 2.77306L34.2773 7.00938L35.3496 7.76524L38.3027 3.52892V24.6578H39.6387V3.52892C39.6387 2.88438 39.3281 2.46837 38.707 2.28087ZM39.375 0.171494C38.6367 -0.0628811 37.9043 -0.0570217 37.1777 0.189072C36.4512 0.435166 35.8652 0.874619 35.4199 1.50743L32.4668 5.74376L33.9082 6.74571L33.5566 6.49962L36.5098 2.26329C37.1309 1.38438 37.9512 1.10899 38.9707 1.43712C40.002 1.75353 40.5176 2.45079 40.5176 3.52892V24.6578H41.8359V3.52892C41.8359 2.75548 41.6074 2.06407 41.1504 1.4547C40.7051 0.833603 40.1133 0.405869 39.375 0.171494Z" transform="translate(0.210938 0.342163)" fill="white"/>
<path d="M57.498 5.28673C57.498 4.44298 57.1992 3.71642 56.6016 3.10704C55.9922 2.50938 55.2656 2.21056 54.4219 2.21056H45.6152V3.52892H54.4219C54.9023 3.52892 55.3184 3.69884 55.6699 4.03868C56.0098 4.39024 56.1797 4.80626 56.1797 5.28673V8.81993H45.6152V10.1383H57.498V5.28673ZM45.6152 0.0132908V1.33165H54.4219C55.5117 1.33165 56.4434 1.71837 57.2168 2.49181C57.9902 3.26524 58.377 4.19688 58.377 5.28673V19.3668C58.377 20.4684 57.9902 21.4059 57.2168 22.1793C56.4434 22.9527 55.5117 23.3395 54.4219 23.3395H45.6152V24.6578H54.4219C55.875 24.6578 57.1172 24.1422 58.1484 23.1109C59.1797 22.0797 59.6953 20.8316 59.6953 19.3668V5.28673C59.6953 3.8336 59.1797 2.59142 58.1484 1.56017C57.1172 0.528916 55.875 0.0132908 54.4219 0.0132908H45.6152ZM57.498 11.0172H45.6152V12.3356H56.1797V19.3844C56.1797 19.8649 56.0098 20.275 55.6699 20.6149C55.3184 20.9664 54.9023 21.1422 54.4219 21.1422H45.6152V22.4606H54.4219C55.2656 22.4606 55.9922 22.1559 56.6016 21.5465C57.1992 20.9488 57.498 20.2281 57.498 19.3844V11.0172Z" transform="translate(0.210938 0.342163)" fill="white"/>
<path d="M65.5488 21.1422V24.6578H64.6699V21.1422H63.3516V24.6578H66.8672V21.1422H65.5488Z" transform="translate(0.210938 0.342163)" fill="white"/>
<path d="M80.8594 1.33165C81.4688 1.33165 81.9902 1.54845 82.4238 1.98204C82.8457 2.40392 83.0566 2.91954 83.0566 3.52892V8.80235C83.0566 9.41173 82.8457 9.93321 82.4238 10.3668C81.9902 10.8004 81.4688 11.0172 80.8594 11.0172H74.6367L83.4961 24.6578H85.0957L77.0801 12.3356H80.877C81.8496 12.3356 82.6816 11.9899 83.373 11.2984C84.0527 10.607 84.3926 9.77501 84.3926 8.80235V3.52892C84.3926 2.55626 84.0527 1.72423 83.373 1.03282C82.6816 0.353135 81.8496 0.0132908 80.877 0.0132908H75.5859C74.1328 0.0132908 72.8906 0.528916 71.8594 1.56017C70.8281 2.59142 70.3125 3.8336 70.3125 5.28673V24.6578H71.6133V5.28673C71.6133 4.19688 72 3.26524 72.7734 2.49181C73.5586 1.71837 74.4961 1.33165 75.5859 1.33165H80.8594ZM73.8281 5.28673C73.8281 4.80626 74.0039 4.39024 74.3555 4.03868C74.6953 3.69884 75.1055 3.52892 75.5859 3.52892H80.877V8.80235H73.8281V5.28673ZM80.8594 10.1383C81.2227 10.1383 81.5332 10.0094 81.791 9.75157C82.0488 9.49376 82.1777 9.17735 82.1777 8.80235V3.52892C82.1777 3.16563 82.0488 2.85509 81.791 2.59728C81.5332 2.33946 81.2227 2.21056 80.8594 2.21056H75.5859C74.7305 2.21056 74.0039 2.50938 73.4062 3.10704C72.7969 3.71642 72.4922 4.44298 72.4922 5.28673V10.1383H80.8594ZM73.582 11.0172H72.4922V24.6578H73.8281V13.7945L80.8945 24.6578H82.459L73.582 11.0172Z" transform="translate(0.210938 0.342163)" fill="white"/>
<path d="M100.037 0.0132908V17.609C100.037 19.191 99.4805 20.5387 98.3672 21.652C97.2422 22.777 95.8945 23.3395 94.3242 23.3395H93.4453C91.8633 23.3395 90.5156 22.777 89.4023 21.652C88.2773 20.5387 87.7148 19.191 87.7148 17.609V0.0132908H86.3965V17.609C86.3965 19.5543 87.082 21.2184 88.4531 22.6012C89.8359 23.9723 91.5 24.6578 93.4453 24.6578H94.3242C96.2578 24.6578 97.916 23.9723 99.2988 22.6012C100.67 21.2184 101.355 19.5543 101.355 17.609V0.0132908H100.037ZM94.3242 22.4606C95.6602 22.4606 96.7969 21.9859 97.7344 21.0367C98.6836 20.0875 99.1582 18.9449 99.1582 17.609V0.0132908H97.8398V17.609C97.8398 18.5816 97.4941 19.4137 96.8027 20.1051C96.123 20.7965 95.2969 21.1422 94.3242 21.1422H93.4453C92.4727 21.1422 91.6406 20.7965 90.9492 20.1051C90.2578 19.4137 89.9121 18.5816 89.9121 17.609V0.0132908H88.5938V17.609C88.5938 18.9449 89.0684 20.0875 90.0176 21.0367C90.9668 21.9859 92.1094 22.4606 93.4453 22.4606H94.3242Z" transform="translate(0.210938 0.342163)" fill="white"/>
</svg>
